<svg version="1.1" id="Layer_1" xmlns="http://www.w3.org/2000/svg" xmlns:xlink="http://www.w3.org/1999/xlink" x="0px" y="0px"
	 width="100%" viewBox="0 0 465 465" enable-background="new 0 0 465 465" xml:space="preserve">
<path fill="#000000" opacity="1.000000" stroke="none" 
	d="
M210.000000,466.000000 
	C140.018677,466.000000 70.537354,466.000000 1.028018,466.000000 
	C1.028018,311.060333 1.028018,156.120682 1.028018,1.090504 
	C155.897964,1.090504 310.795990,1.090504 465.847015,1.090504 
	C465.847015,155.999878 465.847015,310.999939 465.847015,466.000000 
	C380.787384,466.000000 295.643707,466.000000 210.000000,466.000000 
M165.171631,348.426300 
	C168.349854,347.435638 171.509476,346.379700 174.709763,345.466339 
	C184.794586,342.588074 194.974091,340.013550 204.964996,336.842590 
	C213.748276,334.054871 215.050476,329.889374 211.420593,321.710083 
	C209.263718,316.849884 208.149200,311.527069 206.545105,306.344635 
	C213.286087,304.742950 218.845444,303.422028 225.216476,301.908234 
	C225.216476,308.611542 225.381287,314.710358 225.174545,320.796600 
	C224.919189,328.314148 226.823395,330.810883 234.300873,330.164825 
	C243.336853,329.384094 252.639221,328.976318 260.146332,322.621979 
	C260.762482,322.100464 261.961761,321.940552 262.815582,322.077393 
	C272.087616,323.563599 280.684784,320.682739 289.052704,317.534760 
	C297.137848,314.493134 298.184418,310.133484 294.516357,302.214417 
	C292.286438,297.400208 290.776947,292.252289 288.943848,287.254272 
	C289.442505,286.975708 289.941162,286.697113 290.439819,286.418549 
	C294.161713,287.792053 297.900085,289.122681 301.602661,290.546417 
	C317.788696,296.770142 333.161011,294.887512 348.143707,286.461060 
	C361.725555,278.822418 372.948792,268.451782 382.677460,256.573578 
	C392.468231,244.619644 401.725464,232.189270 410.571075,219.517136 
	C415.060883,213.085098 411.364990,207.226883 403.548370,208.071426 
	C398.918396,208.571655 393.741028,209.993332 390.130463,212.738007 
	C381.711395,219.138000 373.315887,225.900223 366.325500,233.771957 
	C355.472046,245.993927 343.196136,255.153519 327.032837,258.695435 
	C318.423370,260.582031 315.063507,259.376190 310.293335,251.862457 
	C308.510101,249.053680 306.621643,246.260223 305.260010,243.243622 
	C296.093231,222.935303 280.253296,209.011200 261.571960,198.040741 
	C249.352280,190.864777 236.665237,183.940689 221.985641,184.112717 
	C197.072968,184.404663 176.927719,194.456512 162.753189,215.380463 
	C158.578812,221.542511 154.648346,227.869781 150.185226,234.772232 
	C148.928177,232.657379 147.736954,231.085693 146.988037,229.325775 
	C140.285629,213.575409 133.852600,197.707535 126.951569,182.045502 
	C121.671577,170.062454 116.847343,157.690887 109.952980,146.659164 
	C102.920692,135.406754 91.131897,130.612442 77.734222,130.962830 
	C69.521980,131.177597 62.846001,136.053650 62.213802,143.141510 
	C61.689743,149.016983 59.829216,153.750488 56.523193,158.576401 
	C52.558849,164.363342 52.765461,170.957016 56.755489,176.930099 
	C60.725868,182.873764 66.667870,183.754837 73.152237,182.398224 
	C76.240280,181.752167 79.351761,181.017242 82.286079,179.889297 
	C85.762703,178.552887 88.201431,179.587540 89.805634,182.598785 
	C92.305420,187.291168 94.812263,192.007721 96.875557,196.899841 
	C105.666565,217.743668 113.892532,238.835846 123.115387,259.484222 
	C130.105713,275.134369 138.308182,290.202393 151.538818,301.853241 
	C153.084763,303.214569 153.998169,306.363617 153.748535,308.514893 
	C152.467560,319.553589 151.003433,330.590576 149.008087,341.519470 
	C147.825073,347.999146 150.671783,351.738831 157.191650,350.627197 
	C159.641983,350.209412 162.022873,349.384338 165.171631,348.426300 
z"/>
<path fill="#F0F0EE" opacity="1.000000" stroke="none" 
	d="
M164.803528,348.585632 
	C162.022873,349.384338 159.641983,350.209412 157.191650,350.627197 
	C150.671783,351.738831 147.825073,347.999146 149.008087,341.519470 
	C151.003433,330.590576 152.467560,319.553589 153.748535,308.514893 
	C153.998169,306.363617 153.084763,303.214569 151.538818,301.853241 
	C138.308182,290.202393 130.105713,275.134369 123.115387,259.484222 
	C113.892532,238.835846 105.666565,217.743668 96.875557,196.899841 
	C94.812263,192.007721 92.305420,187.291168 89.805634,182.598785 
	C88.201431,179.587540 85.762703,178.552887 82.286079,179.889297 
	C79.351761,181.017242 76.240280,181.752167 73.152237,182.398224 
	C66.667870,183.754837 60.725868,182.873764 56.755489,176.930099 
	C52.765461,170.957016 52.558849,164.363342 56.523193,158.576401 
	C59.829216,153.750488 61.689743,149.016983 62.213802,143.141510 
	C62.846001,136.053650 69.521980,131.177597 77.734222,130.962830 
	C91.131897,130.612442 102.920692,135.406754 109.952980,146.659164 
	C116.847343,157.690887 121.671577,170.062454 126.951569,182.045502 
	C133.852600,197.707535 140.285629,213.575409 146.988037,229.325775 
	C147.736954,231.085693 148.928177,232.657379 150.185226,234.772232 
	C154.648346,227.869781 158.578812,221.542511 162.753189,215.380463 
	C176.927719,194.456512 197.072968,184.404663 221.985641,184.112717 
	C236.665237,183.940689 249.352280,190.864777 261.571960,198.040741 
	C280.253296,209.011200 296.093231,222.935303 305.260010,243.243622 
	C306.621643,246.260223 308.510101,249.053680 310.293335,251.862457 
	C315.063507,259.376190 318.423370,260.582031 327.032837,258.695435 
	C343.196136,255.153519 355.472046,245.993927 366.325500,233.771957 
	C373.315887,225.900223 381.711395,219.138000 390.130463,212.738007 
	C393.741028,209.993332 398.918396,208.571655 403.548370,208.071426 
	C411.364990,207.226883 415.060883,213.085098 410.571075,219.517136 
	C401.725464,232.189270 392.468231,244.619644 382.677460,256.573578 
	C372.948792,268.451782 361.725555,278.822418 348.143707,286.461060 
	C333.161011,294.887512 317.788696,296.770142 301.602661,290.546417 
	C297.900085,289.122681 294.161713,287.792053 290.439819,286.418549 
	C289.941162,286.697113 289.442505,286.975708 288.943848,287.254272 
	C290.776947,292.252289 292.286438,297.400208 294.516357,302.214417 
	C298.184418,310.133484 297.137848,314.493134 289.052704,317.534760 
	C280.684784,320.682739 272.087616,323.563599 262.815582,322.077393 
	C261.961761,321.940552 260.762482,322.100464 260.146332,322.621979 
	C252.639221,328.976318 243.336853,329.384094 234.300873,330.164825 
	C226.823395,330.810883 224.919189,328.314148 225.174545,320.796600 
	C225.381287,314.710358 225.216476,308.611542 225.216476,301.908234 
	C218.845444,303.422028 213.286087,304.742950 206.545105,306.344635 
	C208.149200,311.527069 209.263718,316.849884 211.420593,321.710083 
	C215.050476,329.889374 213.748276,334.054871 204.964996,336.842590 
	C194.974091,340.013550 184.794586,342.588074 174.709763,345.466339 
	C171.509476,346.379700 168.349854,347.435638 164.803528,348.585632 
M260.697540,205.726166 
	C250.210098,201.167648 240.097900,194.298721 229.158630,192.522018 
	C204.899002,188.581909 184.705460,197.916519 169.988297,217.710114 
	C165.156158,224.209000 161.569458,231.652130 157.592911,238.763931 
	C153.397659,246.266876 149.029327,246.561600 144.353271,239.462509 
	C143.896301,238.768799 143.453735,238.064484 143.031586,237.349106 
	C132.311554,219.183105 125.502144,199.335815 117.910255,179.791870 
	C114.081642,169.935791 109.558540,160.172318 103.975769,151.224030 
	C98.240318,142.031082 88.954895,137.724380 77.848282,138.847046 
	C71.944771,139.443771 68.576813,143.389984 69.431709,149.054489 
	C70.059250,153.212616 68.675163,156.099976 66.119232,158.968063 
	C64.694023,160.567322 63.265034,162.305908 62.399639,164.233902 
	C60.058033,169.450714 63.700115,175.913162 69.146927,175.269058 
	C74.090187,174.684494 79.223030,172.953232 83.524483,170.445053 
	C88.053535,167.804108 89.865898,167.125580 92.820503,171.616486 
	C95.633911,175.892776 98.067070,180.502960 100.055779,185.223999 
	C110.131058,209.141876 119.656372,233.297745 130.091904,257.055054 
	C135.835785,270.131439 142.287766,283.353821 153.047775,292.967743 
	C159.628052,298.847137 161.919800,304.862030 161.170456,312.950043 
	C160.848053,316.429962 160.737854,319.929779 160.402634,323.408173 
	C159.819351,329.460388 159.136292,335.502991 158.361526,342.808685 
	C163.590622,341.081238 167.698395,339.430695 171.957077,338.409729 
	C175.395706,337.585358 176.463852,335.861084 176.351288,332.461212 
	C176.048218,323.307068 175.972198,314.143555 175.953415,304.983490 
	C175.949829,303.229645 176.619370,301.474457 176.978378,299.719879 
	C177.474136,299.632904 177.969894,299.545929 178.465652,299.458923 
	C179.759521,301.465576 181.573441,303.312622 182.247467,305.509430 
	C184.096329,311.535217 185.890518,317.636719 186.932022,323.838257 
	C188.764465,334.749542 188.462677,334.597961 199.209976,331.207184 
	C204.095276,329.665863 204.945465,327.075317 203.518143,322.564148 
	C201.513214,316.227356 199.960815,309.748932 198.082047,303.370178 
	C196.997787,299.688965 198.293716,297.915588 202.026855,297.858398 
	C203.350189,297.838135 204.675140,298.137787 206.003433,298.192230 
	C213.837006,298.513306 220.737137,296.231812 226.605118,290.909088 
	C227.864868,289.766388 229.444183,288.976013 230.876282,288.023346 
	C231.762787,289.864502 233.319092,291.672607 233.411911,293.552917 
	C233.706619,299.523163 233.322433,305.523010 233.443420,311.506500 
	C233.687088,323.556335 233.728058,323.421326 245.664963,321.179169 
	C249.673767,320.426208 251.243134,318.778381 251.188828,314.562622 
	C251.066635,305.077637 251.359818,295.581879 251.738602,286.100677 
	C251.807541,284.374847 253.085663,282.697296 253.805573,280.997467 
	C255.149643,282.439636 257.107178,283.659454 257.725372,285.364746 
	C259.765839,290.993408 261.304535,296.803009 263.067810,302.533325 
	C267.342773,316.426178 268.419739,316.847046 282.612549,312.138672 
	C287.017303,310.677399 288.368683,308.818298 286.536407,304.185547 
	C283.482544,296.464172 280.991486,288.513733 278.472351,280.593292 
	C278.028137,279.196655 278.060211,276.570679 278.829315,276.109924 
	C280.091217,275.354004 282.287292,275.466370 283.823639,275.990967 
	C288.228088,277.494873 292.643036,279.101593 296.798248,281.179169 
	C317.118591,291.339111 335.841278,287.846283 353.461670,274.785095 
	C369.450226,262.933533 381.526611,247.403870 393.368805,231.705338 
	C396.725037,227.256149 399.542908,222.400848 402.607697,217.731812 
	C402.249054,217.246033 401.890411,216.760269 401.531769,216.274490 
	C399.173676,217.050110 396.662903,217.529541 394.483856,218.652557 
	C384.973236,223.554016 377.703491,231.121857 370.879669,239.140427 
	C358.712097,253.438354 343.878754,263.138428 325.114410,266.414032 
	C318.053986,267.646545 312.130615,266.007141 307.754913,260.328247 
	C304.622162,256.262543 301.382477,252.090927 299.248657,247.477158 
	C290.976440,229.590805 277.508087,216.640289 260.697540,205.726166 
z"/>
<path fill="#040404" opacity="1.000000" stroke="none" 
	d="
M261.006775,205.916046 
	C277.508087,216.640289 290.976440,229.590805 299.248657,247.477158 
	C301.382477,252.090927 304.622162,256.262543 307.754913,260.328247 
	C312.130615,266.007141 318.053986,267.646545 325.114410,266.414032 
	C343.878754,263.138428 358.712097,253.438354 370.879669,239.140427 
	C377.703491,231.121857 384.973236,223.554016 394.483856,218.652557 
	C396.662903,217.529541 399.173676,217.050110 401.531769,216.274490 
	C401.890411,216.760269 402.249054,217.246033 402.607697,217.731812 
	C399.542908,222.400848 396.725037,227.256149 393.368805,231.705338 
	C381.526611,247.403870 369.450226,262.933533 353.461670,274.785095 
	C335.841278,287.846283 317.118591,291.339111 296.798248,281.179169 
	C292.643036,279.101593 288.228088,277.494873 283.823639,275.990967 
	C282.287292,275.466370 280.091217,275.354004 278.829315,276.109924 
	C278.060211,276.570679 278.028137,279.196655 278.472351,280.593292 
	C280.991486,288.513733 283.482544,296.464172 286.536407,304.185547 
	C288.368683,308.818298 287.017303,310.677399 282.612549,312.138672 
	C268.419739,316.847046 267.342773,316.426178 263.067810,302.533325 
	C261.304535,296.803009 259.765839,290.993408 257.725372,285.364746 
	C257.107178,283.659454 255.149643,282.439636 253.805573,280.997467 
	C253.085663,282.697296 251.807541,284.374847 251.738602,286.100677 
	C251.359818,295.581879 251.066635,305.077637 251.188828,314.562622 
	C251.243134,318.778381 249.673767,320.426208 245.664963,321.179169 
	C233.728058,323.421326 233.687088,323.556335 233.443420,311.506500 
	C233.322433,305.523010 233.706619,299.523163 233.411911,293.552917 
	C233.319092,291.672607 231.762787,289.864502 230.876282,288.023346 
	C229.444183,288.976013 227.864868,289.766388 226.605118,290.909088 
	C220.737137,296.231812 213.837006,298.513306 206.003433,298.192230 
	C204.675140,298.137787 203.350189,297.838135 202.026855,297.858398 
	C198.293716,297.915588 196.997787,299.688965 198.082047,303.370178 
	C199.960815,309.748932 201.513214,316.227356 203.518143,322.564148 
	C204.945465,327.075317 204.095276,329.665863 199.209976,331.207184 
	C188.462677,334.597961 188.764465,334.749542 186.932022,323.838257 
	C185.890518,317.636719 184.096329,311.535217 182.247467,305.509430 
	C181.573441,303.312622 179.759521,301.465576 178.465652,299.458923 
	C177.969894,299.545929 177.474136,299.632904 176.978378,299.719879 
	C176.619370,301.474457 175.949829,303.229645 175.953415,304.983490 
	C175.972198,314.143555 176.048218,323.307068 176.351288,332.461212 
	C176.463852,335.861084 175.395706,337.585358 171.957077,338.409729 
	C167.698395,339.430695 163.590622,341.081238 158.361526,342.808685 
	C159.136292,335.502991 159.819351,329.460388 160.402634,323.408173 
	C160.737854,319.929779 160.848053,316.429962 161.170456,312.950043 
	C161.919800,304.862030 159.628052,298.847137 153.047775,292.967743 
	C142.287766,283.353821 135.835785,270.131439 130.091904,257.055054 
	C119.656372,233.297745 110.131058,209.141876 100.055779,185.223999 
	C98.067070,180.502960 95.633911,175.892776 92.820503,171.616486 
	C89.865898,167.125580 88.053535,167.804108 83.524483,170.445053 
	C79.223030,172.953232 74.090187,174.684494 69.146927,175.269058 
	C63.700115,175.913162 60.058033,169.450714 62.399639,164.233902 
	C63.265034,162.305908 64.694023,160.567322 66.119232,158.968063 
	C68.675163,156.099976 70.059250,153.212616 69.431709,149.054489 
	C68.576813,143.389984 71.944771,139.443771 77.848282,138.847046 
	C88.954895,137.724380 98.240318,142.031082 103.975769,151.224030 
	C109.558540,160.172318 114.081642,169.935791 117.910255,179.791870 
	C125.502144,199.335815 132.311554,219.183105 143.031586,237.349106 
	C143.453735,238.064484 143.896301,238.768799 144.353271,239.462509 
	C149.029327,246.561600 153.397659,246.266876 157.592911,238.763931 
	C161.569458,231.652130 165.156158,224.209000 169.988297,217.710114 
	C184.705460,197.916519 204.899002,188.581909 229.158630,192.522018 
	C240.097900,194.298721 250.210098,201.167648 261.006775,205.916046 
M83.890701,150.523758 
	C82.505524,149.322983 81.257843,147.830551 79.661377,147.078003 
	C79.094620,146.810837 76.823906,148.340332 76.821358,149.054947 
	C76.815170,150.795334 77.146713,153.373672 78.303032,154.114120 
	C81.042419,155.868240 82.899002,154.037323 83.890701,150.523758 
z"/>
<path fill="#D9D8D8" opacity="1.000000" stroke="none" 
	d="
M83.870300,150.901062 
	C82.899002,154.037323 81.042419,155.868240 78.303032,154.114120 
	C77.146713,153.373672 76.815170,150.795334 76.821358,149.054947 
	C76.823906,148.340332 79.094620,146.810837 79.661377,147.078003 
	C81.257843,147.830551 82.505524,149.322983 83.870300,150.901062 
z"/>
</svg>